<svg width="19" height="19" viewBox="0 0 19 19" fill="none" xmlns="http://www.w3.org/2000/svg">
<path fill-rule="evenodd" clip-rule="evenodd" d="M16.7185 0.998519C17.0485 0.668619 17.5744 0.666679 17.917 0.997549C18.2499 1.33036 18.2499 1.8679 17.918 2.19974L2.19831 17.9185C2.04207 18.0747 1.81694 18.1669 1.59762 18.1669C1.38316 18.1669 1.17161 18.0796 1.00082 17.9214C0.667001 17.575 0.667001 17.0482 0.997911 16.7173L3.5889 14.1266H3.5627C2.27109 14.1266 1.33076 13.2145 1.15609 11.7979C0.961036 10.3813 0.999852 7.95553 1.15609 6.66504C1.3395 5.32603 2.33028 4.40522 3.5627 4.40522H5.24054L8.44289 1.78543C8.83203 1.45553 9.52102 1.14406 10.0538 1.13533C11.0242 1.13533 11.917 1.81357 12.2372 2.9003C12.3633 3.35731 12.4128 3.81237 12.4517 4.24998L12.5283 4.87C12.5409 4.96508 12.5526 5.05629 12.5623 5.15332L16.7185 0.998519ZM11.6409 10.5874C11.7719 10.4593 12.0649 10.3671 12.1969 10.4011C12.5531 10.4913 12.6229 11.0026 12.6171 11.4043C12.6006 12.5706 12.5618 13.3818 12.4997 13.8834L12.456 14.2968L12.4553 14.3044C12.4138 14.7203 12.3708 15.1506 12.2474 15.6096C11.9242 16.6944 11.0577 17.3988 10.0727 17.3988C10.0407 17.3988 10.0086 17.3988 9.97565 17.3979C9.43125 17.3979 8.84125 17.0718 8.50645 16.7875L7.31382 15.8648C6.86064 15.5281 6.99456 14.9906 7.2488 14.6791C7.43866 14.4472 9.7206 12.3524 10.9191 11.2521C11.3256 10.879 11.6075 10.6203 11.6409 10.5874Z" fill="#8667F2"/>
</svg>
