<svg width="22" height="22" viewBox="0 0 22 22" fill="none" xmlns="http://www.w3.org/2000/svg">
<path fill-rule="evenodd" clip-rule="evenodd" d="M14.5291 2.29263C15.1075 2.29263 15.685 2.37421 16.2341 2.55846C19.6175 3.65846 20.8367 7.37096 19.8182 10.616C19.2407 12.2742 18.2966 13.7876 17.06 15.0242C15.2899 16.7384 13.3475 18.26 11.2566 19.5709L11.0274 19.7093L10.7891 19.5617C8.69082 18.26 6.7374 16.7384 4.95082 15.015C3.72249 13.7785 2.7774 12.2742 2.19074 10.616C1.1549 7.37096 2.37407 3.65846 5.79415 2.53921C6.05999 2.44754 6.33407 2.38338 6.60907 2.34763H6.71907C6.97665 2.31004 7.2324 2.29263 7.48907 2.29263H7.5899C8.1674 2.31004 8.72657 2.41088 9.26832 2.59513H9.3224C9.35907 2.61254 9.38657 2.63179 9.4049 2.64921C9.60749 2.71429 9.79907 2.78763 9.9824 2.88846L10.3307 3.04429C10.4149 3.08918 10.5094 3.15778 10.591 3.21706C10.6428 3.25462 10.6894 3.28844 10.7249 3.31013C10.7399 3.31895 10.7551 3.32783 10.7704 3.33677C10.849 3.38265 10.9309 3.43045 10.9999 3.48338C12.0183 2.70513 13.2549 2.28346 14.5291 2.29263ZM16.9674 8.89263C17.3432 8.88254 17.6641 8.58096 17.6916 8.19504V8.08596C17.7191 6.80171 16.9408 5.63846 15.7574 5.18929C15.3816 5.06004 14.9691 5.26263 14.8316 5.64763C14.7032 6.03263 14.9049 6.45429 15.2899 6.59088C15.8775 6.81088 16.2707 7.38929 16.2707 8.03004V8.05846C16.2533 8.26838 16.3166 8.47096 16.4449 8.62679C16.5732 8.78263 16.7657 8.87338 16.9674 8.89263Z" fill="#FA6969"/>
</svg>
