<svg width="14" height="15" viewBox="0 0 14 15" fill="none" xmlns="http://www.w3.org/2000/svg">
<path fill-rule="evenodd" clip-rule="evenodd" d="M4.72367 7.50041C4.72367 8.74485 5.74237 9.75738 7.0001 9.75738C8.25213 9.75738 9.27083 8.74485 9.27083 7.50041C9.27083 6.25031 8.25213 5.23778 7.0001 5.23778C5.74237 5.23778 4.72367 6.25031 4.72367 7.50041ZM10.3464 4.02728C11.3424 4.79657 12.1903 5.92222 12.7993 7.33071C12.8448 7.43818 12.8448 7.56263 12.7993 7.66445C11.5814 10.4814 9.41311 12.1671 7.0001 12.1671H6.99441C4.58709 12.1671 2.4188 10.4814 1.20091 7.66445C1.15538 7.56263 1.15538 7.43818 1.20091 7.33071C2.4188 4.51374 4.58709 2.83374 6.99441 2.83374H7.0001C8.2066 2.83374 9.3505 3.25233 10.3464 4.02728ZM7.00078 8.90765C7.78045 8.90765 8.41785 8.27411 8.41785 7.49916C8.41785 6.71856 7.78045 6.08502 7.00078 6.08502C6.93249 6.08502 6.86419 6.09068 6.80159 6.10199C6.77883 6.72421 6.26663 7.22199 5.63493 7.22199H5.60647C5.5894 7.3125 5.57802 7.403 5.57802 7.49916C5.57802 8.27411 6.21541 8.90765 7.00078 8.90765Z" fill="#8C8198"/>
</svg>
